<svg width="121" height="120" viewBox="0 0 121 120" fill="none" xmlns="http://www.w3.org/2000/svg">
<rect x="0.5" width="120" height="120" rx="60" fill="#CFFF92"/>
<path d="M44.5 45.576C45.092 45.08 45.732 44.616 46.42 44.184C47.124 43.752 47.876 43.376 48.676 43.056C49.476 42.72 50.332 42.464 51.244 42.288C52.172 42.096 53.172 42 54.244 42C55.748 42 57.1 42.2 58.3 42.6C59.516 43 60.548 43.576 61.396 44.328C62.244 45.064 62.892 45.96 63.34 47.016C63.804 48.056 64.036 49.216 64.036 50.496C64.036 51.712 63.868 52.768 63.532 53.664C63.196 54.544 62.772 55.312 62.26 55.968C61.748 56.624 61.18 57.192 60.556 57.672C59.948 58.152 59.364 58.6 58.804 59.016C58.26 59.416 57.78 59.816 57.364 60.216C56.964 60.616 56.708 61.064 56.596 61.56L55.924 64.92H50.836L50.308 61.056C50.18 60.272 50.26 59.592 50.548 59.016C50.836 58.424 51.228 57.896 51.724 57.432C52.236 56.952 52.804 56.504 53.428 56.088C54.052 55.656 54.636 55.2 55.18 54.72C55.724 54.224 56.18 53.68 56.548 53.088C56.932 52.48 57.124 51.76 57.124 50.928C57.124 49.968 56.804 49.208 56.164 48.648C55.54 48.072 54.676 47.784 53.572 47.784C52.724 47.784 52.012 47.872 51.436 48.048C50.876 48.224 50.388 48.424 49.972 48.648C49.572 48.856 49.22 49.048 48.916 49.224C48.612 49.4 48.308 49.488 48.004 49.488C47.316 49.488 46.804 49.192 46.468 48.6L44.5 45.576ZM48.916 73.584C48.916 73.008 49.02 72.472 49.228 71.976C49.452 71.48 49.748 71.048 50.116 70.68C50.5 70.312 50.948 70.024 51.46 69.816C51.972 69.592 52.532 69.48 53.14 69.48C53.732 69.48 54.284 69.592 54.796 69.816C55.308 70.024 55.756 70.312 56.14 70.68C56.524 71.048 56.82 71.48 57.028 71.976C57.252 72.472 57.364 73.008 57.364 73.584C57.364 74.16 57.252 74.704 57.028 75.216C56.82 75.712 56.524 76.144 56.14 76.512C55.756 76.88 55.308 77.168 54.796 77.376C54.284 77.584 53.732 77.688 53.14 77.688C52.532 77.688 51.972 77.584 51.46 77.376C50.948 77.168 50.5 76.88 50.116 76.512C49.748 76.144 49.452 75.712 49.228 75.216C49.02 74.704 48.916 74.16 48.916 73.584Z" fill="#063B27"/>
<path d="M76.6686 42.384V56.112C76.6686 57.584 76.5806 59.048 76.4046 60.504C76.2286 61.944 75.9966 63.416 75.7086 64.92H70.6686C70.3806 63.416 70.1486 61.944 69.9726 60.504C69.7966 59.048 69.7086 57.584 69.7086 56.112V42.384H76.6686ZM68.8926 73.584C68.8926 73.008 68.9966 72.472 69.2046 71.976C69.4286 71.48 69.7246 71.048 70.0926 70.68C70.4766 70.312 70.9246 70.024 71.4366 69.816C71.9486 69.592 72.5086 69.48 73.1166 69.48C73.7086 69.48 74.2606 69.592 74.7726 69.816C75.2846 70.024 75.7326 70.312 76.1166 70.68C76.5006 71.048 76.7966 71.48 77.0046 71.976C77.2286 72.472 77.3406 73.008 77.3406 73.584C77.3406 74.16 77.2286 74.704 77.0046 75.216C76.7966 75.712 76.5006 76.144 76.1166 76.512C75.7326 76.88 75.2846 77.168 74.7726 77.376C74.2606 77.584 73.7086 77.688 73.1166 77.688C72.5086 77.688 71.9486 77.584 71.4366 77.376C70.9246 77.168 70.4766 76.88 70.0926 76.512C69.7246 76.144 69.4286 75.712 69.2046 75.216C68.9966 74.704 68.8926 74.16 68.8926 73.584Z" fill="#063B27"/>
</svg>
