<svg width="21" height="20" viewBox="0 0 21 20" fill="none" xmlns="http://www.w3.org/2000/svg">
<g id="vuesax/linear/calendar">
<g id="calendar">
<path id="Vector" d="M7.16666 1.6665V4.1665" stroke="#667085" stroke-width="1.5" stroke-miterlimit="10" stroke-linecap="round" stroke-linejoin="round"/>
<path id="Vector_2" d="M13.8333 1.6665V4.1665" stroke="#667085" stroke-width="1.5" stroke-miterlimit="10" stroke-linecap="round" stroke-linejoin="round"/>
<path id="Vector_3" d="M13.8333 2.9165C16.6083 3.0665 18 4.12484 18 8.0415V13.1915C18 16.6248 17.1667 18.3415 13 18.3415H8C3.83333 18.3415 3 16.6248 3 13.1915V8.0415C3 4.12484 4.39167 3.07484 7.16667 2.9165H13.8333Z" stroke="#667085" stroke-width="1.5" stroke-miterlimit="10" stroke-linecap="round" stroke-linejoin="round"/>
<path id="Vector_4" d="M17.7917 14.6665H3.20834" stroke="#667085" stroke-width="1.5" stroke-miterlimit="10" stroke-linecap="round" stroke-linejoin="round"/>
<path id="Vector_5" d="M10.5 6.875C9.47499 6.875 8.60832 7.43333 8.60832 8.51667C8.60832 9.03333 8.84999 9.425 9.21666 9.675C8.70832 9.975 8.41666 10.4583 8.41666 11.025C8.41666 12.0583 9.20832 12.7 10.5 12.7C11.7833 12.7 12.5833 12.0583 12.5833 11.025C12.5833 10.4583 12.2917 9.96667 11.775 9.675C12.15 9.41667 12.3833 9.03333 12.3833 8.51667C12.3833 7.43333 11.525 6.875 10.5 6.875ZM10.5 9.24167C10.0667 9.24167 9.74999 8.98333 9.74999 8.575C9.74999 8.15833 10.0667 7.91667 10.5 7.91667C10.9333 7.91667 11.25 8.15833 11.25 8.575C11.25 8.98333 10.9333 9.24167 10.5 9.24167ZM10.5 11.6667C9.94999 11.6667 9.54999 11.3917 9.54999 10.8917C9.54999 10.3917 9.94999 10.125 10.5 10.125C11.05 10.125 11.45 10.4 11.45 10.8917C11.45 11.3917 11.05 11.6667 10.5 11.6667Z" fill="#667085"/>
</g>
</g>
</svg>
