<svg width="20" height="20" viewBox="0 0 20 20" fill="none" xmlns="http://www.w3.org/2000/svg">
<path d="M7.08317 15.8333H6.6665C3.33317 15.8333 1.6665 15 1.6665 10.8333V6.66663C1.6665 3.33329 3.33317 1.66663 6.6665 1.66663H13.3332C16.6665 1.66663 18.3332 3.33329 18.3332 6.66663V10.8333C18.3332 14.1666 16.6665 15.8333 13.3332 15.8333H12.9165C12.6582 15.8333 12.4082 15.9583 12.2498 16.1666L10.9998 17.8333C10.4498 18.5666 9.54984 18.5666 8.99984 17.8333L7.74984 16.1666C7.6165 15.9833 7.30817 15.8333 7.08317 15.8333Z" stroke="#517668" stroke-width="1.5" stroke-miterlimit="10" stroke-linecap="round" stroke-linejoin="round"/>
<path d="M5.8335 6.66663H14.1668" stroke="#517668" stroke-width="1.5" stroke-linecap="round" stroke-linejoin="round"/>
<path d="M5.8335 10.8334H10.8335" stroke="#517668" stroke-width="1.5" stroke-linecap="round" stroke-linejoin="round"/>
</svg>
