<svg width="20" height="20" viewBox="0 0 20 20" fill="none" xmlns="http://www.w3.org/2000/svg">
<path d="M18.3334 4.75833V12.7417C18.3334 15.0417 16.4668 16.9083 14.1668 16.9083H5.83343C5.4501 16.9083 5.08343 16.8583 4.7251 16.7583C4.20843 16.6167 4.04177 15.9583 4.4251 15.575L13.2834 6.71666C13.4668 6.53333 13.7418 6.49166 14.0001 6.54166C14.2668 6.59166 14.5584 6.51666 14.7668 6.31666L16.9084 4.16666C17.6918 3.38333 18.3334 3.64166 18.3334 4.75833Z" fill="#063B27"/>
<path d="M12.1998 6.13335L3.47484 14.8583C3.07484 15.2583 2.40817 15.1583 2.1415 14.6583C1.83317 14.0917 1.6665 13.4333 1.6665 12.7417V4.75835C1.6665 3.64168 2.30817 3.38335 3.0915 4.16668L5.2415 6.32502C5.5665 6.64168 6.09984 6.64168 6.42484 6.32502L9.40817 3.33335C9.73317 3.00835 10.2665 3.00835 10.5915 3.33335L12.2082 4.95002C12.5248 5.27502 12.5248 5.80835 12.1998 6.13335Z" fill="#063B27"/>
</svg>
