<svg width="25" height="24" viewBox="0 0 25 24" fill="none" xmlns="http://www.w3.org/2000/svg">
<path d="M8.5 2V5" stroke="#98A2B3" stroke-width="1.5" stroke-miterlimit="10" stroke-linecap="round" stroke-linejoin="round"/>
<path d="M16.5 2V5" stroke="#98A2B3" stroke-width="1.5" stroke-miterlimit="10" stroke-linecap="round" stroke-linejoin="round"/>
<path d="M16.5 3.5C19.83 3.68 21.5 4.95 21.5 9.65V15.83C21.5 19.95 20.5 22.01 15.5 22.01H9.5C4.5 22.01 3.5 19.95 3.5 15.83V9.65C3.5 4.95 5.17 3.69 8.5 3.5H16.5Z" stroke="#98A2B3" stroke-width="1.5" stroke-miterlimit="10" stroke-linecap="round" stroke-linejoin="round"/>
<path d="M21.25 17.6001H3.75" stroke="#98A2B3" stroke-width="1.5" stroke-miterlimit="10" stroke-linecap="round" stroke-linejoin="round"/>
<path d="M11.2141 12.0406L11.8922 11.6404L11.2417 11.1969C10.9285 10.9834 10.73 10.6632 10.73 10.22C10.73 9.71831 10.9237 9.37115 11.2155 9.1384C11.5206 8.89503 11.9696 8.75 12.5 8.75C13.0303 8.75 13.4761 8.89496 13.7783 9.13747C14.0674 9.36945 14.26 9.71657 14.26 10.22C14.26 10.6637 14.0709 10.9746 13.7463 11.1982L13.0875 11.6521L13.7842 12.0454C14.2539 12.3106 14.5 12.738 14.5 13.23C14.5 13.7087 14.3209 14.0639 14.0143 14.3102C13.6953 14.5665 13.1925 14.74 12.5 14.74C11.8019 14.74 11.2996 14.5662 10.9825 14.3107C10.6778 14.0652 10.5 13.7104 10.5 13.23C10.5 12.7407 10.7442 12.3179 11.2141 12.0406ZM11.1 10.29C11.1 10.6739 11.2534 11.0139 11.5274 11.2515C11.7946 11.4832 12.1431 11.59 12.5 11.59C12.8569 11.59 13.2054 11.4832 13.4726 11.2515C13.7466 11.0139 13.9 10.6739 13.9 10.29C13.9 9.90251 13.7473 9.56152 13.4674 9.32535C13.1972 9.09733 12.8488 9 12.5 9C12.1512 9 11.8028 9.09733 11.5326 9.32535C11.2527 9.56152 11.1 9.90251 11.1 10.29ZM10.86 13.07C10.86 13.5186 11.0468 13.899 11.3755 14.1547C11.6896 14.399 12.0934 14.5 12.5 14.5C12.9066 14.5 13.3104 14.399 13.6245 14.1547C13.9532 13.899 14.14 13.5186 14.14 13.07C14.14 12.6236 13.9509 12.246 13.6229 11.9929C13.3095 11.751 12.9067 11.65 12.5 11.65C12.0966 11.65 11.6934 11.747 11.3786 11.988C11.0476 12.2413 10.86 12.6206 10.86 13.07Z" fill="#292D32" stroke="#98A2B3"/>
</svg>
