<svg width="25" height="24" viewBox="0 0 25 24" fill="none" xmlns="http://www.w3.org/2000/svg">
<path d="M18.5 7.16C18.44 7.15 18.37 7.15 18.31 7.16C16.93 7.11 15.83 5.98 15.83 4.58C15.83 3.15 16.98 2 18.41 2C19.84 2 20.99 3.16 20.99 4.58C20.98 5.98 19.88 7.11 18.5 7.16Z" stroke="#98A2B3" stroke-width="1.5" stroke-linecap="round" stroke-linejoin="round"/>
<path d="M17.47 14.4402C18.84 14.6702 20.35 14.4302 21.41 13.7202C22.82 12.7802 22.82 11.2402 21.41 10.3002C20.34 9.59016 18.81 9.35016 17.44 9.59016" stroke="#98A2B3" stroke-width="1.5" stroke-linecap="round" stroke-linejoin="round"/>
<path d="M6.47 7.16C6.53 7.15 6.6 7.15 6.66 7.16C8.04 7.11 9.14 5.98 9.14 4.58C9.14 3.15 7.99 2 6.56 2C5.13 2 3.98 3.16 3.98 4.58C3.99 5.98 5.09 7.11 6.47 7.16Z" stroke="#98A2B3" stroke-width="1.5" stroke-linecap="round" stroke-linejoin="round"/>
<path d="M7.5 14.4402C6.13 14.6702 4.62 14.4302 3.56 13.7202C2.15 12.7802 2.15 11.2402 3.56 10.3002C4.63 9.59016 6.16 9.35016 7.53 9.59016" stroke="#98A2B3" stroke-width="1.5" stroke-linecap="round" stroke-linejoin="round"/>
<path d="M12.5 14.6302C12.44 14.6202 12.37 14.6202 12.31 14.6302C10.93 14.5802 9.83 13.4502 9.83 12.0502C9.83 10.6202 10.98 9.47021 12.41 9.47021C13.84 9.47021 14.99 10.6302 14.99 12.0502C14.98 13.4502 13.88 14.5902 12.5 14.6302Z" stroke="#98A2B3" stroke-width="1.5" stroke-linecap="round" stroke-linejoin="round"/>
<path d="M9.59 17.7804C8.18 18.7204 8.18 20.2603 9.59 21.2003C11.19 22.2703 13.81 22.2703 15.41 21.2003C16.82 20.2603 16.82 18.7204 15.41 17.7804C13.82 16.7204 11.19 16.7204 9.59 17.7804Z" stroke="#98A2B3" stroke-width="1.5" stroke-linecap="round" stroke-linejoin="round"/>
</svg>
