<svg width="14" height="14" viewBox="0 0 14 14" fill="none" xmlns="http://www.w3.org/2000/svg">
<path fill-rule="evenodd" clip-rule="evenodd" d="M2.26912 4.69225C2.1 4.46378 2 4.18107 2 3.875C2 3.11561 2.61561 2.5 3.375 2.5C3.64743 2.5 3.90135 2.57923 4.11498 2.7159C3.34423 3.20596 2.70675 3.88693 2.26912 4.69225ZM11.37 7.255C11.37 9.67125 9.41125 11.63 6.995 11.63C4.57875 11.63 2.62 9.67125 2.62 7.255C2.62 4.83875 4.57875 2.88 6.995 2.88C9.41125 2.88 11.37 4.83875 11.37 7.255ZM7.38 7.875H5.25V7.12H6.63V4.5H7.38V7.875ZM10.625 2.5C10.3505 2.5 10.0947 2.58046 9.88004 2.71909C10.651 3.21049 11.2883 3.89306 11.7251 4.70001C11.8977 4.4702 12 4.18455 12 3.875C12 3.11561 11.3844 2.5 10.625 2.5Z" fill="white"/>
</svg>
