<svg width="27" height="12" viewBox="0 0 27 12" fill="none" xmlns="http://www.w3.org/2000/svg">
<path opacity="0.35" fill-rule="evenodd" clip-rule="evenodd" d="M2.54717 0H21.9057C23.3124 0 24.4528 1.14041 24.4528 2.54717V9.16981C24.4528 10.5766 23.3124 11.717 21.9057 11.717H2.54717C1.14041 11.717 0 10.5766 0 9.16981V2.54717C0 1.14041 1.14041 0 2.54717 0ZM2.54717 1.01887C1.70311 1.01887 1.01887 1.70311 1.01887 2.54717V9.16981C1.01887 10.0139 1.70311 10.6981 2.54717 10.6981H21.9057C22.7497 10.6981 23.434 10.0139 23.434 9.16981V2.54717C23.434 1.70311 22.7497 1.01887 21.9057 1.01887H2.54717Z" fill="white"/>
<path opacity="0.4" fill-rule="evenodd" clip-rule="evenodd" d="M25.4717 3.36207C26.3789 3.82583 27 4.7696 27 5.85844C27 6.94727 26.3789 7.89105 25.4717 8.35481V3.36207Z" fill="white"/>
<path fill-rule="evenodd" clip-rule="evenodd" d="M3.0566 2.03774H21.3962C21.9589 2.03774 22.4151 2.4939 22.4151 3.0566V8.66038C22.4151 9.22308 21.9589 9.67925 21.3962 9.67925H3.0566C2.4939 9.67925 2.03774 9.22308 2.03774 8.66038V3.0566C2.03774 2.4939 2.4939 2.03774 3.0566 2.03774Z" fill="white"/>
</svg>
