<svg width="20" height="20" viewBox="0 0 20 20" fill="none" xmlns="http://www.w3.org/2000/svg">
<g id="vuesax/linear/message-text">
<g id="message-text">
<path id="Vector" d="M7.08329 15.8334H6.66663C3.33329 15.8334 1.66663 15.0001 1.66663 10.8334V6.66675C1.66663 3.33341 3.33329 1.66675 6.66663 1.66675H13.3333C16.6666 1.66675 18.3333 3.33341 18.3333 6.66675V10.8334C18.3333 14.1667 16.6666 15.8334 13.3333 15.8334H12.9166C12.6583 15.8334 12.4083 15.9584 12.25 16.1667L11 17.8334C10.45 18.5667 9.54996 18.5667 8.99996 17.8334L7.74996 16.1667C7.61663 15.9834 7.30829 15.8334 7.08329 15.8334Z" stroke="#1F4F3D" stroke-width="1.5" stroke-miterlimit="10" stroke-linecap="round" stroke-linejoin="round"/>
<path id="Vector_2" d="M5.83337 6.66675H14.1667" stroke="#1F4F3D" stroke-width="1.5" stroke-linecap="round" stroke-linejoin="round"/>
<path id="Vector_3" d="M5.83337 10.8333H10.8334" stroke="#1F4F3D" stroke-width="1.5" stroke-linecap="round" stroke-linejoin="round"/>
</g>
</g>
</svg>
