<svg width="220" height="29" viewBox="0 0 220 29" fill="none" xmlns="http://www.w3.org/2000/svg">
<path d="M25.855 0.999999H30.355L24.175 22H19.135L15.175 5.17L11.335 22H6.265L0.085 0.999999H4.585L8.995 17.26L12.625 0.999999H17.815L21.475 17.2L25.855 0.999999ZM41.1977 17.14H45.6377C44.7377 20.38 41.9477 22.45 38.0477 22.45C33.2177 22.45 30.1277 19.27 30.1277 14.5C30.1277 9.73 33.2777 6.55 38.0477 6.55C43.5077 6.55 46.5377 10.63 44.9477 15.49H34.4177C34.7177 17.65 35.9477 18.94 38.1077 18.94C39.6077 18.94 40.7177 18.31 41.1977 17.14ZM38.0177 9.94C36.0977 9.94 34.8677 10.99 34.4777 12.94H41.0177C41.1977 11.14 40.1477 9.94 38.0177 9.94ZM57.7162 10.48H53.4262V17.02C53.4262 18.1 53.7262 18.94 55.2562 18.94C56.0962 18.94 56.6662 18.7 57.4162 18.28V21.82C56.6962 22.21 55.7062 22.45 54.4762 22.45C49.7062 22.45 49.3462 18.97 49.3462 17.05V10.48H46.3762V7H49.3462V2.92H53.4262V7H57.7162V10.48ZM61.8937 5.08C60.5137 5.08 59.4637 4.03 59.4637 2.65C59.4637 1.27 60.5137 0.22 61.8937 0.22C63.2737 0.22 64.3237 1.27 64.3237 2.65C64.3237 4.03 63.2737 5.08 61.8937 5.08ZM59.8237 22V7H63.9037V22H59.8237ZM75.91 6.55C80.77 6.55 80.77 11.38 80.77 13.45V22H76.69V13.48C76.69 12.07 76.69 9.94 74.35 9.94C72.4 9.94 70.99 11.83 70.99 14.62V22H66.94V7H70.99V9.67C71.86 7.72 73.63 6.55 75.91 6.55ZM99.824 0.999999C105.974 0.999999 110.114 5.17 110.114 11.47C110.114 17.77 106.034 22 99.854 22H91.364V0.999999H99.824ZM99.824 18.46C103.214 18.46 105.674 15.79 105.674 11.44C105.674 7.3 103.454 4.54 99.824 4.54H95.684V18.46H99.824ZM139.445 7H143.705L138.245 23.11C137.615 24.94 136.175 28.42 131.795 28.42C131.015 28.42 130.115 28.3 129.275 27.97V24.52C130.055 24.79 130.745 24.94 131.345 24.94C133.055 24.94 133.895 23.86 134.375 22.81L128.285 7H132.605L136.175 17.89L139.445 7ZM161.401 22.45C155.851 22.45 152.341 19.54 152.701 14.98H157.051C156.901 17.44 158.551 18.88 161.491 18.88C164.041 18.88 165.571 17.77 165.571 16.15C165.571 11.47 152.971 15.46 152.971 7.21C152.971 3.04 156.211 0.549999 161.221 0.549999C166.681 0.549999 169.981 3.52 169.441 7.99H165.091C165.451 5.53 163.921 4.12 161.131 4.12C158.821 4.12 157.351 5.14 157.351 6.73C157.351 11.41 169.981 7.54 169.981 15.67C169.981 19.9 166.621 22.45 161.401 22.45ZM182.385 7H186.465V22H182.385V19.54C181.365 21.34 179.655 22.36 177.585 22.36C173.385 22.36 172.755 18.07 172.755 15.43V7H176.835V15.43C176.835 17.29 177.285 18.97 179.145 18.97C181.125 18.97 182.385 17.17 182.385 14.56V7ZM198.462 6.55C202.482 6.55 205.362 9.73 205.362 14.5C205.362 19.27 202.482 22.45 198.492 22.45C196.242 22.45 194.502 21.46 193.392 19.75V28H189.342V7H193.392V9.25C194.502 7.54 196.242 6.55 198.462 6.55ZM197.262 18.97C199.572 18.97 201.162 17.17 201.162 14.5C201.162 11.83 199.572 10.06 197.262 10.06C194.922 10.06 193.392 11.83 193.392 14.5C193.392 17.17 194.922 18.97 197.262 18.97ZM213.864 16.6C210.384 16.6 208.044 15.22 208.044 12.64C208.044 7.99 215.694 8.71 215.694 5.71C215.694 4.78 214.974 4.06 213.804 4.06C212.484 4.06 211.584 4.93 211.584 6.31C211.584 6.61 211.614 6.88 211.704 7.15H207.534C207.414 6.73 207.354 6.28 207.354 5.86C207.354 2.95 209.844 0.549999 213.834 0.549999C217.554 0.549999 219.924 2.65 219.924 5.68C219.924 10.99 212.694 10.72 212.694 12.43C212.694 12.88 213.144 13.24 214.164 13.24C215.484 13.24 217.224 12.67 218.184 12.07V15.7C217.374 16.15 215.814 16.6 213.864 16.6ZM213.654 22.33C212.304 22.33 211.314 21.34 211.314 20.02C211.314 18.7 212.304 17.68 213.654 17.68C214.974 17.68 215.964 18.7 215.964 20.02C215.964 21.34 214.974 22.33 213.654 22.33Z" fill="#1D2939"/>
<path d="M122.965 17.14H127.405C126.505 20.38 123.715 22.45 119.815 22.45C114.985 22.45 111.895 19.27 111.895 14.5C111.895 9.73 115.045 6.55 119.815 6.55C125.275 6.55 128.305 10.63 126.715 15.49H116.185C116.485 17.65 117.715 18.94 119.875 18.94C121.375 18.94 122.485 18.31 122.965 17.14ZM119.785 9.94C117.865 9.94 116.635 10.99 116.245 12.94H122.785C122.965 11.14 121.915 9.94 119.785 9.94Z" fill="#386252"/>
</svg>
